<?xml version="1.0" encoding="utf-8"?>
<svg xmlns="http://www.w3.org/2000/svg" xmlns:xlink="http://www.w3.org/1999/xlink" width="600" height="400" viewBox="0 0 2400 1600">
<defs>
  <clipPath id="clip300">
    <rect x="0" y="0" width="2400" height="1600"/>
  </clipPath>
</defs>
<path clip-path="url(#clip300)" d="
M0 1600 L2400 1600 L2400 0 L0 0  Z
  " fill="#ffffff" fill-rule="evenodd" fill-opacity="1"/>
<defs>
  <clipPath id="clip301">
    <rect x="480" y="0" width="1681" height="1600"/>
  </clipPath>
</defs>
<path clip-path="url(#clip300)" d="
M547.267 1487.47 L1987.5 1487.47 L1987.5 47.2441 L547.267 47.2441  Z
  " fill="#ffffff" fill-rule="evenodd" fill-opacity="1"/>
<defs>
  <clipPath id="clip302">
    <rect x="547" y="47" width="1441" height="1441"/>
  </clipPath>
</defs>
<polyline clip-path="url(#clip302)" style="stroke:#000000; stroke-width:1.6; stroke-opacity:0.1; fill:none" points="
  787.305,1487.47 787.305,47.2441 
  "/>
<polyline clip-path="url(#clip302)" style="stroke:#000000; stroke-width:1.6; stroke-opacity:0.1; fill:none" points="
  1027.34,1487.47 1027.34,47.2441 
  "/>
<polyline clip-path="url(#clip302)" style="stroke:#000000; stroke-width:1.6; stroke-opacity:0.1; fill:none" points="
  1267.38,1487.47 1267.38,47.2441 
  "/>
<polyline clip-path="url(#clip302)" style="stroke:#000000; stroke-width:1.6; stroke-opacity:0.1; fill:none" points="
  1507.42,1487.47 1507.42,47.2441 
  "/>
<polyline clip-path="url(#clip302)" style="stroke:#000000; stroke-width:1.6; stroke-opacity:0.1; fill:none" points="
  1747.46,1487.47 1747.46,47.2441 
  "/>
<polyline clip-path="url(#clip302)" style="stroke:#000000; stroke-width:1.6; stroke-opacity:0.1; fill:none" points="
  547.267,1247.44 1987.5,1247.44 
  "/>
<polyline clip-path="url(#clip302)" style="stroke:#000000; stroke-width:1.6; stroke-opacity:0.1; fill:none" points="
  547.267,1007.4 1987.5,1007.4 
  "/>
<polyline clip-path="url(#clip302)" style="stroke:#000000; stroke-width:1.6; stroke-opacity:0.1; fill:none" points="
  547.267,767.359 1987.5,767.359 
  "/>
<polyline clip-path="url(#clip302)" style="stroke:#000000; stroke-width:1.6; stroke-opacity:0.1; fill:none" points="
  547.267,527.321 1987.5,527.321 
  "/>
<polyline clip-path="url(#clip302)" style="stroke:#000000; stroke-width:1.6; stroke-opacity:0.1; fill:none" points="
  547.267,287.283 1987.5,287.283 
  "/>
<polyline clip-path="url(#clip300)" style="stroke:#000000; stroke-width:3.2; stroke-opacity:1; fill:none" points="
  547.267,1487.47 1987.5,1487.47 
  "/>
<polyline clip-path="url(#clip300)" style="stroke:#000000; stroke-width:3.2; stroke-opacity:1; fill:none" points="
  547.267,1487.47 547.267,47.2441 
  "/>
<polyline clip-path="url(#clip300)" style="stroke:#000000; stroke-width:3.2; stroke-opacity:1; fill:none" points="
  787.305,1487.47 787.305,1465.87 
  "/>
<polyline clip-path="url(#clip300)" style="stroke:#000000; stroke-width:3.2; stroke-opacity:1; fill:none" points="
  1027.34,1487.47 1027.34,1465.87 
  "/>
<polyline clip-path="url(#clip300)" style="stroke:#000000; stroke-width:3.2; stroke-opacity:1; fill:none" points="
  1267.38,1487.47 1267.38,1465.87 
  "/>
<polyline clip-path="url(#clip300)" style="stroke:#000000; stroke-width:3.2; stroke-opacity:1; fill:none" points="
  1507.42,1487.47 1507.42,1465.87 
  "/>
<polyline clip-path="url(#clip300)" style="stroke:#000000; stroke-width:3.2; stroke-opacity:1; fill:none" points="
  1747.46,1487.47 1747.46,1465.87 
  "/>
<polyline clip-path="url(#clip300)" style="stroke:#000000; stroke-width:3.2; stroke-opacity:1; fill:none" points="
  547.267,1247.44 568.87,1247.44 
  "/>
<polyline clip-path="url(#clip300)" style="stroke:#000000; stroke-width:3.2; stroke-opacity:1; fill:none" points="
  547.267,1007.4 568.87,1007.4 
  "/>
<polyline clip-path="url(#clip300)" style="stroke:#000000; stroke-width:3.2; stroke-opacity:1; fill:none" points="
  547.267,767.359 568.87,767.359 
  "/>
<polyline clip-path="url(#clip300)" style="stroke:#000000; stroke-width:3.2; stroke-opacity:1; fill:none" points="
  547.267,527.321 568.87,527.321 
  "/>
<polyline clip-path="url(#clip300)" style="stroke:#000000; stroke-width:3.2; stroke-opacity:1; fill:none" points="
  547.267,287.283 568.87,287.283 
  "/>
<g clip-path="url(#clip300)">
<text style="fill:#000000; fill-opacity:1; font-family:Arial,Helvetica Neue,Helvetica,sans-serif; font-size:48px; text-anchor:middle;" transform="rotate(0, 787.305, 1541.47)" x="787.305" y="1541.47">-0.4</text>
</g>
<g clip-path="url(#clip300)">
<text style="fill:#000000; fill-opacity:1; font-family:Arial,Helvetica Neue,Helvetica,sans-serif; font-size:48px; text-anchor:middle;" transform="rotate(0, 1027.34, 1541.47)" x="1027.34" y="1541.47">-0.2</text>
</g>
<g clip-path="url(#clip300)">
<text style="fill:#000000; fill-opacity:1; font-family:Arial,Helvetica Neue,Helvetica,sans-serif; font-size:48px; text-anchor:middle;" transform="rotate(0, 1267.38, 1541.47)" x="1267.38" y="1541.47">0.0</text>
</g>
<g clip-path="url(#clip300)">
<text style="fill:#000000; fill-opacity:1; font-family:Arial,Helvetica Neue,Helvetica,sans-serif; font-size:48px; text-anchor:middle;" transform="rotate(0, 1507.42, 1541.47)" x="1507.42" y="1541.47">0.2</text>
</g>
<g clip-path="url(#clip300)">
<text style="fill:#000000; fill-opacity:1; font-family:Arial,Helvetica Neue,Helvetica,sans-serif; font-size:48px; text-anchor:middle;" transform="rotate(0, 1747.46, 1541.47)" x="1747.46" y="1541.47">0.4</text>
</g>
<g clip-path="url(#clip300)">
<text style="fill:#000000; fill-opacity:1; font-family:Arial,Helvetica Neue,Helvetica,sans-serif; font-size:48px; text-anchor:end;" transform="rotate(0, 523.267, 1264.94)" x="523.267" y="1264.94">-0.4</text>
</g>
<g clip-path="url(#clip300)">
<text style="fill:#000000; fill-opacity:1; font-family:Arial,Helvetica Neue,Helvetica,sans-serif; font-size:48px; text-anchor:end;" transform="rotate(0, 523.267, 1024.9)" x="523.267" y="1024.9">-0.2</text>
</g>
<g clip-path="url(#clip300)">
<text style="fill:#000000; fill-opacity:1; font-family:Arial,Helvetica Neue,Helvetica,sans-serif; font-size:48px; text-anchor:end;" transform="rotate(0, 523.267, 784.859)" x="523.267" y="784.859">0.0</text>
</g>
<g clip-path="url(#clip300)">
<text style="fill:#000000; fill-opacity:1; font-family:Arial,Helvetica Neue,Helvetica,sans-serif; font-size:48px; text-anchor:end;" transform="rotate(0, 523.267, 544.821)" x="523.267" y="544.821">0.2</text>
</g>
<g clip-path="url(#clip300)">
<text style="fill:#000000; fill-opacity:1; font-family:Arial,Helvetica Neue,Helvetica,sans-serif; font-size:48px; text-anchor:end;" transform="rotate(0, 523.267, 304.783)" x="523.267" y="304.783">0.4</text>
</g>
<polyline clip-path="url(#clip302)" style="stroke:#009af9; stroke-width:3.2; stroke-opacity:1; fill:none" points="
  667.286,1367.46 667.286,1367.46 
  "/>
<path clip-path="url(#clip302)" d="
M1192.37 842.371 L1192.37 767.359 L1267.38 767.359 L1267.38 842.371 L1192.37 842.371  Z
  " fill="#ff0000" fill-rule="evenodd" fill-opacity="1"/>
<polyline clip-path="url(#clip302)" style="stroke:#000000; stroke-width:3.2; stroke-opacity:1; fill:none" points="
  1192.37,842.371 1192.37,767.359 1267.38,767.359 1267.38,842.371 1192.37,842.371 
  "/>
<path clip-path="url(#clip302)" d="
M1192.37 917.383 L1192.37 842.371 L1267.38 842.371 L1267.38 917.383 L1192.37 917.383  Z
  " fill="#ff0000" fill-rule="evenodd" fill-opacity="1"/>
<polyline clip-path="url(#clip302)" style="stroke:#000000; stroke-width:3.2; stroke-opacity:1; fill:none" points="
  1192.37,917.383 1192.37,842.371 1267.38,842.371 1267.38,917.383 1192.37,917.383 
  "/>
<path clip-path="url(#clip302)" d="
M1117.36 917.383 L1117.36 767.359 L1192.37 767.359 L1192.37 917.383 L1117.36 917.383  Z
  " fill="#0000ff" fill-rule="evenodd" fill-opacity="1"/>
<polyline clip-path="url(#clip302)" style="stroke:#000000; stroke-width:3.2; stroke-opacity:1; fill:none" points="
  1117.36,917.383 1117.36,767.359 1192.37,767.359 1192.37,917.383 1117.36,917.383 
  "/>
<path clip-path="url(#clip302)" d="
M1192.37 992.395 L1192.37 917.383 L1267.38 917.383 L1267.38 992.395 L1192.37 992.395  Z
  " fill="#ff0000" fill-rule="evenodd" fill-opacity="1"/>
<polyline clip-path="url(#clip302)" style="stroke:#000000; stroke-width:3.2; stroke-opacity:1; fill:none" points="
  1192.37,992.395 1192.37,917.383 1267.38,917.383 1267.38,992.395 1192.37,992.395 
  "/>
<path clip-path="url(#clip302)" d="
M1192.37 1067.41 L1192.37 992.395 L1267.38 992.395 L1267.38 1067.41 L1192.37 1067.41  Z
  " fill="#ff0000" fill-rule="evenodd" fill-opacity="1"/>
<polyline clip-path="url(#clip302)" style="stroke:#000000; stroke-width:3.2; stroke-opacity:1; fill:none" points="
  1192.37,1067.41 1192.37,992.395 1267.38,992.395 1267.38,1067.41 1192.37,1067.41 
  "/>
<path clip-path="url(#clip302)" d="
M1117.36 1067.41 L1117.36 917.383 L1192.37 917.383 L1192.37 1067.41 L1117.36 1067.41  Z
  " fill="#0000ff" fill-rule="evenodd" fill-opacity="1"/>
<polyline clip-path="url(#clip302)" style="stroke:#000000; stroke-width:3.2; stroke-opacity:1; fill:none" points="
  1117.36,1067.41 1117.36,917.383 1192.37,917.383 1192.37,1067.41 1117.36,1067.41 
  "/>
<path clip-path="url(#clip302)" d="
M967.334 1067.41 L967.334 767.359 L1117.36 767.359 L1117.36 1067.41 L967.334 1067.41  Z
  " fill="#0000ff" fill-rule="evenodd" fill-opacity="1"/>
<polyline clip-path="url(#clip302)" style="stroke:#000000; stroke-width:3.2; stroke-opacity:1; fill:none" points="
  967.334,1067.41 967.334,767.359 1117.36,767.359 1117.36,1067.41 967.334,1067.41 
  "/>
<path clip-path="url(#clip302)" d="
M1192.37 1142.42 L1192.37 1067.41 L1267.38 1067.41 L1267.38 1142.42 L1192.37 1142.42  Z
  " fill="#ff0000" fill-rule="evenodd" fill-opacity="1"/>
<polyline clip-path="url(#clip302)" style="stroke:#000000; stroke-width:3.2; stroke-opacity:1; fill:none" points="
  1192.37,1142.42 1192.37,1067.41 1267.38,1067.41 1267.38,1142.42 1192.37,1142.42 
  "/>
<path clip-path="url(#clip302)" d="
M1192.37 1217.43 L1192.37 1142.42 L1267.38 1142.42 L1267.38 1217.43 L1192.37 1217.43  Z
  " fill="#ff0000" fill-rule="evenodd" fill-opacity="1"/>
<polyline clip-path="url(#clip302)" style="stroke:#000000; stroke-width:3.2; stroke-opacity:1; fill:none" points="
  1192.37,1217.43 1192.37,1142.42 1267.38,1142.42 1267.38,1217.43 1192.37,1217.43 
  "/>
<path clip-path="url(#clip302)" d="
M1117.36 1217.43 L1117.36 1067.41 L1192.37 1067.41 L1192.37 1217.43 L1117.36 1217.43  Z
  " fill="#0000ff" fill-rule="evenodd" fill-opacity="1"/>
<polyline clip-path="url(#clip302)" style="stroke:#000000; stroke-width:3.2; stroke-opacity:1; fill:none" points="
  1117.36,1217.43 1117.36,1067.41 1192.37,1067.41 1192.37,1217.43 1117.36,1217.43 
  "/>
<path clip-path="url(#clip302)" d="
M1192.37 1292.44 L1192.37 1217.43 L1267.38 1217.43 L1267.38 1292.44 L1192.37 1292.44  Z
  " fill="#ff0000" fill-rule="evenodd" fill-opacity="1"/>
<polyline clip-path="url(#clip302)" style="stroke:#000000; stroke-width:3.2; stroke-opacity:1; fill:none" points="
  1192.37,1292.44 1192.37,1217.43 1267.38,1217.43 1267.38,1292.44 1192.37,1292.44 
  "/>
<path clip-path="url(#clip302)" d="
M1192.37 1367.46 L1192.37 1292.44 L1267.38 1292.44 L1267.38 1367.46 L1192.37 1367.46  Z
  " fill="#ff0000" fill-rule="evenodd" fill-opacity="1"/>
<polyline clip-path="url(#clip302)" style="stroke:#000000; stroke-width:3.2; stroke-opacity:1; fill:none" points="
  1192.37,1367.46 1192.37,1292.44 1267.38,1292.44 1267.38,1367.46 1192.37,1367.46 
  "/>
<path clip-path="url(#clip302)" d="
M1117.36 1367.46 L1117.36 1217.43 L1192.37 1217.43 L1192.37 1367.46 L1117.36 1367.46  Z
  " fill="#0000ff" fill-rule="evenodd" fill-opacity="1"/>
<polyline clip-path="url(#clip302)" style="stroke:#000000; stroke-width:3.2; stroke-opacity:1; fill:none" points="
  1117.36,1367.46 1117.36,1217.43 1192.37,1217.43 1192.37,1367.46 1117.36,1367.46 
  "/>
<path clip-path="url(#clip302)" d="
M967.334 1367.46 L967.334 1067.41 L1117.36 1067.41 L1117.36 1367.46 L967.334 1367.46  Z
  " fill="#0000ff" fill-rule="evenodd" fill-opacity="1"/>
<polyline clip-path="url(#clip302)" style="stroke:#000000; stroke-width:3.2; stroke-opacity:1; fill:none" points="
  967.334,1367.46 967.334,1067.41 1117.36,1067.41 1117.36,1367.46 967.334,1367.46 
  "/>
<path clip-path="url(#clip302)" d="
M667.286 1367.46 L667.286 767.359 L967.334 767.359 L967.334 1367.46 L667.286 1367.46  Z
  " fill="#0000ff" fill-rule="evenodd" fill-opacity="1"/>
<polyline clip-path="url(#clip302)" style="stroke:#000000; stroke-width:3.2; stroke-opacity:1; fill:none" points="
  667.286,1367.46 667.286,767.359 967.334,767.359 967.334,1367.46 667.286,1367.46 
  "/>
</svg>
